{
    "asset" : {
        "generator" : "Khronos glTF Blender I/O v1.2.75",
        "version" : "2.0"
    },
    "scene" : 0,
    "scenes" : [
        {
            "name" : "Scene",
            "nodes" : [
                0
            ]
        }
    ],
    "nodes" : [
        {
            "mesh" : 0,
            "name" : "donut",
            "translation" : [
                0,
                0.023667169734835625,
                0
            ]
        }
    ],
    "materials" : [
        {
            "doubleSided" : true,
            "emissiveFactor" : [
                0,
                0,
                0
            ],
            "name" : "Material.003",
            "pbrMetallicRoughness" : {
                "baseColorFactor" : [
                    0.8000000715255737,
                    0.5833224058151245,
                    0.3011341094970703,
                    1
                ],
                "metallicFactor" : 0,
                "roughnessFactor" : 0.5
            }
        }
    ],
    "meshes" : [
        {
            "name" : "Torus.002",
            "primitives" : [
                {
                    "attributes" : {
                        "POSITION" : 0,
                        "NORMAL" : 1,
                        "TEXCOORD_0" : 2
                    },
                    "indices" : 3,
                    "material" : 0
                }
            ]
        }
    ],
    "accessors" : [
        {
            "bufferView" : 0,
            "componentType" : 5126,
            "count" : 2014,
            "max" : [
                0.07238741964101791,
                0.02644684538245201,
                0.07227227091789246
            ],
            "min" : [
                -0.07267076522111893,
                -0.023905901238322258,
                -0.07204768061637878
            ],
            "type" : "VEC3"
        },
        {
            "bufferView" : 1,
            "componentType" : 5126,
            "count" : 2014,
            "type" : "VEC3"
        },
        {
            "bufferView" : 2,
            "componentType" : 5126,
            "count" : 2014,
            "type" : "VEC2"
        },
        {
            "bufferView" : 3,
            "componentType" : 5123,
            "count" : 11232,
            "type" : "SCALAR"
        }
    ],
    "bufferViews" : [
        {
            "buffer" : 0,
            "byteLength" : 24168,
            "byteOffset" : 0
        },
        {
            "buffer" : 0,
            "byteLength" : 24168,
            "byteOffset" : 24168
        },
        {
            "buffer" : 0,
            "byteLength" : 16112,
            "byteOffset" : 48336
        },
        {
            "buffer" : 0,
            "byteLength" : 22464,
            "byteOffset" : 64448
        }
    ],
    "buffers" : [
        {
            "byteLength" : 86912,
            "uri" : "data:application/octet-stream;base64,"
        }
    ]
}
